<svg width="40" height="40" viewBox="0 0 40 40" fill="none" xmlns="http://www.w3.org/2000/svg">
<path d="M33.3333 18.3333H6.66667M33.3333 18.3333C35.1743 18.3333 36.6667 19.8257 36.6667 21.6667V28.3333C36.6667 32.0152 33.6819 35 30 35H10C6.3181 35 3.33333 32.0152 3.33333 28.3333V21.6667C3.33333 19.8257 4.82572 18.3333 6.66667 18.3333M33.3333 18.3333V15C33.3333 13.1591 31.8409 11.6667 30 11.6667M6.66667 18.3333V15C6.66667 13.1591 8.15905 11.6667 10 11.6667M30 11.6667H10M30 11.6667V8.33333C30 6.49238 28.5076 5 26.6667 5H13.3333C11.4924 5 10 6.49238 10 8.33333V11.6667M16.6667 23.3333H23.3333" stroke="#28303F" stroke-width="1.5" stroke-linecap="round"/>
</svg>
