<svg id="Layer_1" data-name="Layer 1" xmlns="http://www.w3.org/2000/svg" viewBox="0 0 53.69 54.44"><path d="M239.14,442h.75a6.61,6.61,0,0,1,2.53.24,2.75,2.75,0,0,1,1.18,1,6.65,6.65,0,0,1,.7,2.44l6,32.77h29.2a6.63,6.63,0,0,0,2.43-.22,2.81,2.81,0,0,0,1.17-.93,6.57,6.57,0,0,0,.76-2.31h0l4.4-19.06h0c.44-1.88.65-2.82.41-3.55a2.69,2.69,0,0,0-1.23-1.54c-.66-.4-1.62-.4-3.55-.4h-37.8m35,42a2.8,2.8,0,1,1,2.8-2.8A2.8,2.8,0,0,1,281.17,492.44Zm-28,0a2.8,2.8,0,1,1,2.8-2.8A2.8,2.8,0,0,1,253.15,492.44Z" transform="translate(-237.14 -440)" style="fill:none;stroke:#010101;stroke-linecap:round;stroke-linejoin:round;stroke-width:4px"/></svg>