<svg id="Layer_1" data-name="Layer 1" xmlns="http://www.w3.org/2000/svg" viewBox="0 0 98.3 88.67"><path d="M351,355.52h-77m77,0a9.63,9.63,0,0,1,9.63,9.63v19.26a19.26,19.26,0,0,1-19.26,19.26H283.56a19.27,19.27,0,0,1-19.26-19.26V365.15a9.63,9.63,0,0,1,9.63-9.63m77,0v-9.63a9.63,9.63,0,0,0-9.63-9.63m-67.41,19.26v-9.63a9.63,9.63,0,0,1,9.63-9.63m57.78,0H283.56m57.78,0v-9.63a9.63,9.63,0,0,0-9.63-9.63H293.19a9.63,9.63,0,0,0-9.63,9.63v9.63M302.82,370h19.26" transform="translate(-263.3 -316)" style="fill:none;stroke:#293140;stroke-linecap:round;stroke-width:2px"/></svg>