<svg id="Layer_1" data-name="Layer 1" xmlns="http://www.w3.org/2000/svg" viewBox="0 0 595.28 841.89"><defs><style>.cls-1,.cls-2{fill:none;stroke:#231f20;}.cls-1{stroke-linecap:round;stroke-linejoin:round;stroke-width:1.5px;}.cls-2{stroke-miterlimit:10;stroke-width:0.25px;}.cls-3{fill:#231f20;}</style></defs><line class="cls-1" x1="251.7" y1="411.26" x2="241.74" y2="421.24"/><line class="cls-1" x1="345.48" y1="317.28" x2="334.68" y2="328.1"/><line class="cls-1" x1="234.78" y1="369.33" x2="220.18" y2="369.34"/><line class="cls-1" x1="367.04" y1="369.19" x2="352.26" y2="369.21"/><line class="cls-1" x1="252.36" y1="328.1" x2="241.63" y2="317.39"/><line class="cls-1" x1="345.59" y1="421.14" x2="335.51" y2="411.08"/><line class="cls-1" x1="293.56" y1="311.26" x2="293.54" y2="295.83"/><line class="cls-1" x1="373.15" y1="337.4" x2="368.51" y2="339.27"/><line class="cls-1" x1="363.04" y1="341.47" x2="358.4" y2="343.34"/><line class="cls-1" x1="229.23" y1="395.4" x2="224.59" y2="397.27"/><line class="cls-1" x1="218.72" y1="399.64" x2="214.08" y2="401.51"/><line class="cls-1" x1="372.52" y1="403.03" x2="367.92" y2="401.07"/><line class="cls-1" x1="362.3" y1="398.68" x2="357.7" y2="396.72"/><line class="cls-1" x1="229.55" y1="342.19" x2="224.95" y2="340.23"/><line class="cls-1" x1="219.31" y1="337.84" x2="214.71" y2="335.88"/><line class="cls-1" x1="267.51" y1="304.69" x2="265.64" y2="300.05"/><line class="cls-1" x1="263.43" y1="294.56" x2="261.56" y2="289.92"/><line class="cls-1" x1="327.19" y1="290.55" x2="325.23" y2="295.15"/><line class="cls-1" x1="322.96" y1="300.51" x2="321" y2="305.11"/><path class="cls-1" d="M274.25,426.9c-4.48-1.36-.41-6.65-5.42-12.68-15.8-19-25.81-28.25-23.26-53.7,1.82-18.18,22.45-41.35,50.81-40.12,28.08,1.22,43.56,25.38,45.19,42.84,3.06,32.77-17.62,38-25.31,55.21-1,2.33.43,3.39-1.28,6.69-.32.63-2.37,1.84-6.22,1.94-11.93.33-29.83.5-29.83.5A25.52,25.52,0,0,1,274.25,426.9Z"/><path class="cls-1" d="M274.93,427.08c0,7.44-.12,17.51-.16,25,4.21,3.62,9.8,7,14,10.6,3.36.12,5.8-.11,9.16,0,4.85-3.57,9.66-7.62,14.51-11.19.17-7.66-.17-17.26,0-24.92"/><path class="cls-1" d="M274.87,437.1h22.87"/><path class="cls-1" d="M274.81,445.07h22.84"/><path class="cls-1" d="M277.73,454.41h17.79"/><path class="cls-1" d="M305,437.1h7.39"/><path class="cls-1" d="M305.74,445.07h6.76"/><path class="cls-1" d="M302.38,454.41h6.2"/><line class="cls-2" x1="293.61" y1="369.26" x2="293.61" y2="369.25"/><line class="cls-2" x1="293.61" y1="369.26" x2="293.61" y2="369.25"/><path class="cls-3" d="M292.4,425.87c7.51-14.5,8.43-27.61-1.4-41.32a49.78,49.78,0,0,0-10.3-10.65.33.33,0,0,1,.37-.55A50.18,50.18,0,0,1,292,383.81c6.31,8,9.94,18.65,7.84,28.83a59.43,59.43,0,0,1-4.76,14.6,1.5,1.5,0,0,1-2.67-1.37Z"/><path class="cls-1" d="M286.76,398.14A36.2,36.2,0,0,1,265,384.52c-11.24-15.3-3.73-34.13-3.39-34.9,1.36-.3,18.76-1.52,31.12,9.24,10,8.7,11.4,22.18,5.27,38.16"/><path class="cls-1" d="M306.67,397.07a48.07,48.07,0,0,0,10.9-7.1c6.61-6,7.79-12.39,12.38-16.94a20,20,0,0,0-9.57-9.11c-7-3.11-14.27.81-14.94,1.19"/><path class="cls-3" d="M307.87,378.85a3.1,3.1,0,0,1,2.12-3.34,7.26,7.26,0,0,1,3.86-1,.1.1,0,0,1,.06.13.09.09,0,0,1-.06.06,11,11,0,0,0-1.6.92c-1.2.76-1.57,1.61-2.45,2.42a5.25,5.25,0,0,1-1.79.88.12.12,0,0,1-.16-.08,0,0,0,0,1,0,0Z"/></svg>