<svg id="Layer_1" data-name="Layer 1" xmlns="http://www.w3.org/2000/svg" viewBox="0 0 159.94 174.3"><defs><style>.cls-1,.cls-2{fill:none;stroke:#2e3690;}.cls-1{stroke-linecap:round;stroke-linejoin:round;stroke-width:1.5px;}.cls-2{stroke-miterlimit:10;stroke-width:0.25px;}.cls-3{fill:#2e3690;}</style></defs><line class="cls-1" x1="38.37" y1="122.09" x2="28.41" y2="132.07"/><line class="cls-1" x1="132.15" y1="28.11" x2="121.35" y2="38.93"/><line class="cls-1" x1="21.45" y1="80.16" x2="6.85" y2="80.17"/><line class="cls-1" x1="153.71" y1="80.02" x2="138.93" y2="80.04"/><line class="cls-1" x1="39.03" y1="38.93" x2="28.3" y2="28.22"/><line class="cls-1" x1="132.26" y1="131.97" x2="122.18" y2="121.91"/><line class="cls-1" x1="80.23" y1="22.09" x2="80.21" y2="6.66"/><line class="cls-1" x1="149.71" y1="52.3" x2="145.07" y2="54.17"/><line class="cls-1" x1="15.9" y1="106.23" x2="11.26" y2="108.1"/><line class="cls-1" x1="5.39" y1="110.47" x2="0.75" y2="112.34"/><line class="cls-1" x1="159.19" y1="113.86" x2="154.59" y2="111.9"/><line class="cls-1" x1="148.97" y1="109.51" x2="144.37" y2="107.55"/><line class="cls-1" x1="16.22" y1="53.02" x2="11.62" y2="51.06"/><line class="cls-1" x1="5.98" y1="48.67" x2="1.38" y2="46.71"/><line class="cls-1" x1="54.18" y1="15.52" x2="52.31" y2="10.88"/><line class="cls-1" x1="50.1" y1="5.39" x2="48.23" y2="0.75"/><line class="cls-1" x1="113.86" y1="1.38" x2="111.9" y2="5.98"/><line class="cls-1" x1="109.63" y1="11.34" x2="107.67" y2="15.94"/><path class="cls-1" d="M273.16,406.73c-4.48-1.36-.41-6.65-5.42-12.68-15.8-19-25.81-28.25-23.26-53.7,1.82-18.18,22.45-41.35,50.81-40.12,28.08,1.22,43.56,25.38,45.19,42.84,3.06,32.77-17.62,38-25.31,55.21-1,2.33.43,3.39-1.28,6.69-.32.63-2.37,1.84-6.22,1.94-11.93.33-29.83.5-29.83.5A25.52,25.52,0,0,1,273.16,406.73Z" transform="translate(-212.24 -269)"/><path class="cls-1" d="M273.84,406.91c0,7.44-.12,17.51-.16,25,4.21,3.62,9.8,7,14,10.6,3.36.12,5.8-.11,9.16,0,4.85-3.57,9.66-7.62,14.51-11.19.17-7.66-.17-17.26,0-24.92" transform="translate(-212.24 -269)"/><path class="cls-1" d="M273.78,416.93h22.87" transform="translate(-212.24 -269)"/><path class="cls-1" d="M273.72,424.9h22.84" transform="translate(-212.24 -269)"/><path class="cls-1" d="M276.64,434.24h17.79" transform="translate(-212.24 -269)"/><path class="cls-1" d="M304,416.93h7.39" transform="translate(-212.24 -269)"/><path class="cls-1" d="M304.65,424.9h6.76" transform="translate(-212.24 -269)"/><path class="cls-1" d="M301.29,434.24h6.2" transform="translate(-212.24 -269)"/><line class="cls-2" x1="80.28" y1="80.09" x2="80.28" y2="80.08"/><line class="cls-2" x1="80.28" y1="80.09" x2="80.28" y2="80.08"/><path class="cls-3" d="M291.31,405.7c7.51-14.5,8.43-27.61-1.4-41.32a49.32,49.32,0,0,0-10.3-10.65.33.33,0,1,1,.37-.55,50,50,0,0,1,10.92,10.46c6.31,8,9.94,18.65,7.84,28.83a59.57,59.57,0,0,1-4.76,14.6,1.5,1.5,0,1,1-2.67-1.37Z" transform="translate(-212.24 -269)"/><path class="cls-1" d="M285.67,378A36.25,36.25,0,0,1,264,364.35c-11.24-15.3-3.73-34.13-3.39-34.9,1.36-.3,18.76-1.52,31.12,9.24,10,8.7,11.4,22.18,5.27,38.16" transform="translate(-212.24 -269)"/><path class="cls-1" d="M305.58,376.9a48.76,48.76,0,0,0,10.9-7.1c6.61-6,7.79-12.39,12.38-16.94a19.92,19.92,0,0,0-9.57-9.11c-7-3.11-14.27.81-14.94,1.19" transform="translate(-212.24 -269)"/><path class="cls-3" d="M306.78,358.68a3.09,3.09,0,0,1,2.12-3.34,7.17,7.17,0,0,1,3.86-1,.1.1,0,0,1,.06.13.09.09,0,0,1-.06.06,11,11,0,0,0-1.6.92c-1.2.76-1.57,1.61-2.45,2.42a5.44,5.44,0,0,1-1.79.88.13.13,0,0,1-.16-.08,0,0,0,0,1,0,0Z" transform="translate(-212.24 -269)"/></svg>