<svg id="Layer_1" data-name="Layer 1" xmlns="http://www.w3.org/2000/svg" viewBox="0 0 64.7 94.31"><path d="M253.09,439.5c-2.9-.88-.26-4.31-3.51-8.22C239.33,419,232.84,413,234.5,396.46c1.18-11.79,14.55-26.81,32.94-26,18.21.79,28.25,16.46,29.3,27.78,2,21.25-11.42,24.64-16.41,35.8-.65,1.51.28,2.2-.83,4.34-.2.4-1.53,1.19-4,1.25-7.74.22-19.34.33-19.34.33A17.41,17.41,0,0,1,253.09,439.5Z" transform="translate(-233.24 -369.41)" style="fill:none;stroke:#231f20;stroke-linecap:round;stroke-linejoin:round;stroke-width:2px"/><path d="M253.53,439.61c0,4.83-.07,11.36-.1,16.21,2.73,2.35,6.36,4.54,9.08,6.88,2.18.07,3.76-.07,5.94,0,3.14-2.32,6.26-4.94,9.41-7.26.11-5-.11-11.19,0-16.16" transform="translate(-233.24 -369.41)" style="fill:none;stroke:#231f20;stroke-linecap:round;stroke-linejoin:round;stroke-width:2px"/><path d="M253.5,446.11h14.82" transform="translate(-233.24 -369.41)" style="fill:none;stroke:#231f20;stroke-linecap:round;stroke-linejoin:round;stroke-width:2px"/><path d="M253.46,451.28h14.81" transform="translate(-233.24 -369.41)" style="fill:none;stroke:#231f20;stroke-linecap:round;stroke-linejoin:round;stroke-width:2px"/><path d="M255.35,457.33h11.53" transform="translate(-233.24 -369.41)" style="fill:none;stroke:#231f20;stroke-linecap:round;stroke-linejoin:round;stroke-width:2px"/><path d="M273.06,446.11h4.79" transform="translate(-233.24 -369.41)" style="fill:none;stroke:#231f20;stroke-linecap:round;stroke-linejoin:round;stroke-width:2px"/><path d="M273.51,451.28h4.38" transform="translate(-233.24 -369.41)" style="fill:none;stroke:#231f20;stroke-linecap:round;stroke-linejoin:round;stroke-width:2px"/><path d="M271.33,457.33h4" transform="translate(-233.24 -369.41)" style="fill:none;stroke:#231f20;stroke-linecap:round;stroke-linejoin:round;stroke-width:2px"/><line x1="32.41" y1="32.71" x2="32.41" y2="32.7" style="fill:none;stroke:#231f20;stroke-miterlimit:10;stroke-width:2px"/><line x1="32.41" y1="32.71" x2="32.41" y2="32.7" style="fill:none;stroke:#231f20;stroke-miterlimit:10;stroke-width:2px"/><path d="M264.86,438.83c4.87-9.4,5.47-17.9-.91-26.79a31.91,31.91,0,0,0-6.67-6.91.21.21,0,0,1-.06-.3.22.22,0,0,1,.3-.05,32.3,32.3,0,0,1,7.08,6.78c4.09,5.19,6.44,12.09,5.08,18.69a38.48,38.48,0,0,1-3.09,9.47,1,1,0,0,1-1.31.42A1,1,0,0,1,264.86,438.83Z" transform="translate(-233.24 -369.41)" style="fill:#231f20"/><path d="M261.21,420.85A23.5,23.5,0,0,1,247.12,412c-7.29-9.92-2.42-22.13-2.2-22.63.89-.19,12.17-1,20.18,6,6.49,5.64,7.39,14.38,3.42,24.74" transform="translate(-233.24 -369.41)" style="fill:none;stroke:#231f20;stroke-linecap:round;stroke-linejoin:round;stroke-width:2px"/><path d="M274.11,420.16a31.16,31.16,0,0,0,7.07-4.61c4.29-3.89,5.05-8,8-11a13,13,0,0,0-6.21-5.91c-4.53-2-9.25.53-9.68.77" transform="translate(-233.24 -369.41)" style="fill:none;stroke:#231f20;stroke-linecap:round;stroke-linejoin:round;stroke-width:2px"/><path d="M274.89,408.34a2,2,0,0,1,1.38-2.16,4.57,4.57,0,0,1,2.5-.65.07.07,0,0,1,0,.08l0,0a7.19,7.19,0,0,0-1,.6c-.78.49-1,1-1.59,1.57a3.49,3.49,0,0,1-1.16.57.08.08,0,0,1-.1-.06h0Z" transform="translate(-233.24 -369.41)" style="fill:#231f20"/></svg>