<svg id="Layer_1" data-name="Layer 1" xmlns="http://www.w3.org/2000/svg" viewBox="0 0 160.65 160.63"><defs><style>.cls-1{fill:#0a0aff;}.cls-1,.cls-2{stroke:#0000a3;stroke-miterlimit:10;stroke-width:5.65px;}.cls-2,.cls-3,.cls-4,.cls-5{fill:none;}.cls-3,.cls-5{stroke:#40b0df;}.cls-3,.cls-4,.cls-5{stroke-linecap:round;stroke-linejoin:round;}.cls-3,.cls-4{stroke-width:6.28px;}.cls-4{stroke:#0067b3;}.cls-5{stroke-width:6.3px;}</style></defs><rect class="cls-1" x="40.9" y="40.9" width="78.84" height="78.84"/><path class="cls-2" d="M227.94,339.38l54-.15V285.62" transform="translate(-187.05 -244.72)"/><path class="cls-2" d="M252.56,364.62l.15-54h53.61" transform="translate(-187.05 -244.72)"/><polyline class="cls-3" points="40.53 3.14 40.53 27.33 133.3 27.33 133.3 119.73 157.49 119.73"/><polyline class="cls-4" points="3.58 40.9 27.33 40.9 27.33 133.3 119.38 133.3 119.38 157.49"/><line class="cls-3" x1="119.73" y1="3.14" x2="119.38" y2="27.33"/><line class="cls-4" x1="40.9" y1="157.49" x2="40.9" y2="133.3"/><line class="cls-4" x1="3.14" y1="119.73" x2="27.33" y2="119.73"/><line class="cls-3" x1="80.43" y1="3.14" x2="80.32" y2="27.33"/><line class="cls-3" x1="157.49" y1="77.35" x2="133.3" y2="77.35"/><line class="cls-4" x1="3.59" y1="77.35" x2="27.33" y2="77.35"/><line class="cls-4" x1="80.32" y1="157.49" x2="80.43" y2="133.3"/><line class="cls-5" x1="157.49" y1="40.9" x2="133.3" y2="40.9"/></svg>