<svg width="40" height="40" viewBox="0 0 40 40" fill="none" xmlns="http://www.w3.org/2000/svg">
<path d="M13.3333 16.6667H26.6667M13.3333 23.3333H26.6667M13.3333 30H20M13.3333 6.66666C13.3333 8.50761 14.8257 9.99999 16.6667 9.99999H23.3333C25.1743 9.99999 26.6667 8.50761 26.6667 6.66666M13.3333 6.66666C13.3333 4.82571 14.8257 3.33333 16.6667 3.33333H23.3333C25.1743 3.33333 26.6667 4.82571 26.6667 6.66666M13.3333 6.66666H11.6667C7.98477 6.66666 5 9.65143 5 13.3333V30C5 33.6819 7.98477 36.6667 11.6667 36.6667H28.3333C32.0152 36.6667 35 33.6819 35 30V13.3333C35 9.65143 32.0152 6.66666 28.3333 6.66666H26.6667" stroke="#28303F" stroke-width="1.5" stroke-linecap="round"/>
</svg>
